<?xml version="1.0" encoding="UTF-8"?>
<svg version="1.1" viewBox="0 0 2048 2048" width="512" height="512" xmlns="http://www.w3.org/2000/svg">
<path transform="translate(409)" d="m0 0h32l4 3 12 6 11 9 9 12 5 12 2 9v72h239v-64l2-14 5-13 7-11 9-9 13-8 10-4h32l4 3 12 6 11 9 9 12 5 12 2 9v72h239v-64l2-14 5-13 7-11 9-9 13-8 10-4h32l4 3 12 6 11 9 9 12 5 12 2 9v72h239v-64l2-14 5-13 7-11 9-9 13-8 10-4h32l4 3 12 6 11 9 9 12 5 12 2 9v72h301l18 2 11 4 11 7 8 7 9 13 5 13 1 6 1 28v961l2 8 11 14 13 18 9 14 14 23 12 23 8 16 10 22 8 20 12 38 6 23 8 40 4 28 2 1v112l-2-1-7 46-6 28-9 33-16 44-11 24-9 19-10 18-16 26-7 11-14 19-10 13-9 11-9 10-7 8-15 16-11 11-8 7-12 11-13 11-12 9-19 14-15 10-22 13-15 9-24 12-24 11-35 13-27 8-31 8-39 7-35 5h-93v-1l-55-9-30-7-31-9-28-10-28-12-23-11-18-10-38-24-12-8-17-14-14-11-16-13-38-38-7-8-8-9-12-16-10-13-11-15-3-1-1e3 -1-12-2-10-4-10-7-10-10-8-13-4-10v-1594h2l1-6 7-13 11-12 11-7 12-5 17-2h302v-64l2-14 5-13 7-11 9-9 13-8zm-288 244-1 26v213l6 1h1680l1-1v-239h-242l-1 20-1 48-3 12-7 14-7 9-13 9-9 4-13 3h-16l-12-3-12-6-10-9-7-8-6-12-3-12-1-14-1-55h-238l-1 20-1 48-3 12-7 14-7 9-13 9-9 4-13 3h-16l-12-3-12-6-10-9-7-8-6-12-3-12-1-14-1-55h-238l-1 20-1 48-3 12-7 14-7 9-13 9-9 4-13 3h-16l-12-3-12-6-10-9-7-8-6-12-3-12-1-14-1-55h-238l-1 20-1 48-3 12-7 14-7 9-13 9-9 4-13 3h-16l-12-3-12-6-10-9-7-8-6-12-3-12-1-14-1-55zm0 360-1 23v1060l6 1h726l146-1-7-25-10-37-10-57-71-1-13-3-12-6-7-6h-2l-2-4-6-7-6-12-3-10-1-11 2-15 5-13 7-11 8-8 14-8 13-4 9-1 65-1 8-45 4-19 12-43 3-11-7-1-91-1-13-3-12-6-10-8-8-11-5-10-3-10-1-14 3-16 8-16 11-12 14-8 13-4 10-1h117l20 2 8 3 4-1 8-11 12-17 20-25 11-12 9-10 7-8 15-15 8-7 10-9 11-9 18-14 17-12 18-12 27-16 29-15 29-13 36-13 35-10 32-7 33-5 31-3 24-1h24l36 2 34 4 32 6 32 8 29 9 22 8 30 13 36 18 23 14 11 7h2v-453zm1362 485-25 2-32 5-29 7-26 8-26 10-25 12-16 8-23 14-13 9-19 14-11 9-12 11-10 9-15 15-7 8-9 10-21 28-10 15-13 22-10 19-9 19-11 29-6 19-9 36-5 33-2 28v41l2 26 6 39 9 35 10 29 10 24 14 28 14 23 10 15 14 19 9 11 12 13 7 8 15 15 8 7 11 10 20 15 15 11 20 12 17 10 19 9 14 7 27 10 23 7 29 7 32 5 19 2 17 1h33l36-3 35-6 35-9 31-11 21-9 28-14 23-14 12-8 28-21 12-11 8-7 4-3v-2l4-2 10-10 7-8 9-10 9-11 12-16 16-24 10-17 9-17 12-26 12-33 8-30 4-18 5-33 2-32v-29l-2-30-6-39-9-36-9-27-9-22-15-31-15-25-10-15-14-19-9-11-9-10-7-8-11-12-8-7-14-13-17-13-16-12-19-12-20-12-32-16-34-13-20-6-28-7-30-5-17-2-19-1z" fill="#010101"/>
<path transform="translate(1497,1208)" d="m0 0h22l13 4 12 7 9 8 9 13 5 13 1 6 1 157-1 31h175l20 2 11 4 11 7 7 6 8 11 5 10 3 11v20l-4 13-6 11-8 10-8 6-11 6-10 3-8 1h-252l-14-3-12-6-10-9-8-9-6-12-3-12-1-13v-237l2-15 7-16 8-10 9-8 11-6z" fill="#010101"/>
<path transform="translate(423,1207)" d="m0 0h120l17 2 12 5 10 7 6 5 9 12 5 12 2 8v20l-4 13-6 11-8 10-11 8-11 5-14 3h-134l-13-3-12-6-11-9-8-11-5-10-3-10-1-14 3-16 8-16 11-12 11-7 12-5z" fill="#010101"/>
<path transform="translate(423,967)" d="m0 0h120l17 2 12 5 10 7 6 5 9 12 5 12 2 8v20l-4 13-6 11-8 10-11 8-11 5-14 3h-134l-13-3-12-6-11-9-8-11-5-10-3-10-1-14 3-16 8-16 11-12 11-7 12-5z" fill="#010101"/>
<path transform="translate(907,967)" d="m0 0h120l17 2 12 5 10 7 6 5 8 11 5 10 3 11v20l-4 13-6 11-8 10-11 8-11 5-14 3h-134l-13-3-12-6-11-9-8-11-5-10-3-10-1-14 3-16 8-16 11-12 11-7 12-5z" fill="#010101"/>
<path transform="translate(423,1447)" d="m0 0h120l17 2 12 5 10 7 6 5 9 12 5 12 2 8v20l-4 13-6 11-8 10-8 6-14 7-7 2-8 1h-133l-13-3-12-6-9-7-9-11-6-12-3-10-1-11 2-15 5-13 7-11 9-9 14-8 13-4z" fill="#010101"/>
<path transform="translate(908,727)" d="m0 0h117l18 2 11 4 11 7 7 6 8 11 5 10 3 11v20l-4 13-6 11-8 10-11 8-11 5-14 3h-134l-13-3-12-6-11-9-8-11-5-10-3-10-1-11 2-15 5-13 7-11 9-9 14-8 13-4z" fill="#010101"/>
<path transform="translate(424,727)" d="m0 0h117l18 2 11 4 11 7 7 6 8 11 5 10 3 11v20l-4 13-6 11-8 10-11 8-11 5-14 3h-134l-13-3-12-6-11-9-8-11-5-10-3-10-1-11 2-15 5-13 7-11 9-9 14-8 13-4z" fill="#010101"/>
<path transform="translate(1388,727)" d="m0 0h117l18 2 11 4 11 7 7 6 8 11 5 10 3 11v20l-4 13-6 11-8 10-8 6-14 7-14 3h-134l-13-3-12-6-11-9-8-11-5-10-3-10-1-11 2-15 5-13 7-11 9-9 14-8 13-4z" fill="#010101"/>
</svg>
