<svg xmlns="http://www.w3.org/2000/svg" width="256" height="256"><path fill="#1976D2" fill-opacity=".063" fill-rule="evenodd" d="M0 128.004v128.004l128.25-.254 128.25-.254.254-127.75L257.008 0H0zm.485.496c0 70.4.119 99.053.265 63.672s.146-92.98 0-128S.485 58.1.485 128.5"/><path fill="#1976D2" fill-opacity=".242" fill-rule="evenodd" d="M57.636 2.636C55.34 4.932 55 6.094 55 11.636V18H34.816c-18.593 0-20.534.169-24.614 2.144-2.944 1.425-5.397 3.67-7.315 6.696L0 31.392l.066 86.054.067 86.054 2.76 5c1.894 3.431 3.992 5.628 6.684 7 2.158 1.1 4.034 2.225 4.17 2.5s3.39.351 7.231.169l6.982-.332-3.122-2.627c-1.718-1.445-3.949-4.446-4.958-6.669-1.725-3.796-1.837-8.298-1.858-74.291L18 64h173.248l7.897-3.953c5.204-2.604 9.938-4.183 13.876-4.629l5.979-.676V43.331c0-13.482-1.56-17.687-8.193-22.08-4.15-2.749-4.173-2.751-24.981-3.073L165 17.855v-4.977c0-5.498-1.99-10.267-4.945-11.848-3.642-1.95-8.036-1.203-11.132 1.893-2.589 2.589-2.923 3.617-2.923 9V18h-27v-6.077c0-5.383-.334-6.411-2.923-9-3.096-3.096-7.49-3.843-11.132-1.893C101.978 2.617 100 7.387 100 12.95V18H73v-6.411c0-5.931-.23-6.605-3.077-9-4.118-3.466-8.792-3.447-12.287.047m149.632 63.253c-6.457 2.405-9.674 4.658-15.169 10.62-6.862 7.444-8.585 12.254-8.592 23.991-.006 8.88.299 10.624 2.729 15.571 3.549 7.227 10.416 14.12 17.565 17.63 5.027 2.469 6.82 2.799 15.199 2.799 8.197 0 10.278-.365 15.175-2.66 7.946-3.725 14.222-9.87 18.075-17.696 2.94-5.973 3.25-7.464 3.25-15.644s-.31-9.671-3.25-15.644c-6.238-12.671-17.18-19.772-31.594-20.503-6.382-.323-9.294.011-13.388 1.536M64 91.5v9.5h19V82H64zm36 0v9.5h19V82h-19zm37 0v9.5h19V82h-19zm79-7.117c0 2.727-3.553 4.233-5.727 2.428-1.01-.838-1.928-.544-3.801 1.215-2.164 2.033-2.293 2.515-1.041 3.898 1.81 2 .307 5.076-2.481 5.076-1.562 0-1.95.696-1.95 3.5 0 2.812.386 3.5 1.965 3.5 2.784 0 4.454 3.407 2.475 5.05-1.33 1.104-1.182 1.61 1.201 4.097s2.913 2.662 4.289 1.416c1.994-1.804 5.07-.296 5.07 2.487 0 1.562.696 1.95 3.5 1.95s3.5-.388 3.5-1.95c0-2.788 3.076-4.291 5.076-2.481 1.383 1.252 1.865 1.123 3.898-1.041 1.876-1.997 2.087-2.75 1.103-3.935-1.634-1.969.283-5.593 2.958-5.593 1.579 0 1.965-.688 1.965-3.5 0-3.038-.32-3.5-2.427-3.5-2.843 0-3.868-2.727-1.904-5.07 1.12-1.337.893-1.975-1.522-4.289-2.409-2.308-3.017-2.502-4.029-1.283-1.786 2.152-5.118.866-5.118-1.975 0-2.057-.479-2.383-3.5-2.383s-3.5.326-3.5 2.383m-1.545 11.072c-1.35 1.35-2.455 3.62-2.455 5.045 0 3.334 4.166 7.5 7.5 7.5s7.5-4.166 7.5-7.5-4.166-7.5-7.5-7.5c-1.425 0-3.695 1.105-5.045 2.455M165.5 111.482c-27.93 7.54-48.713 28.917-54.567 56.124-1.928 8.963-1.495 24.501.939 33.681 3.472 13.094 9.259 22.922 19.588 33.267 7.683 7.695 10.466 9.745 18.54 13.657 13.498 6.54 21.399 8.191 35.853 7.491 12.881-.623 20.705-2.643 30.822-7.958 19.066-10.016 32.478-27.419 37.423-48.56 4.174-17.843 1.289-37.215-7.884-52.956-2.711-4.652-4.051-6.093-5.185-5.579-.841.381-4.904 1.824-9.029 3.205s-7.619 2.586-7.764 2.676 1.665 3.045 4.023 6.567c5.987 8.943 7.95 15.399 8.492 27.921.406 9.389.175 11.349-2.147 18.268-3.181 9.476-6.267 14.599-12.967 21.525-10.362 10.714-23.411 16.198-38.492 16.177-4.755-.006-11.117-.669-14.137-1.473-33.282-8.857-50.039-45.642-34.855-76.515 8.471-17.225 23.918-27.929 44.012-30.5l4.664-.597-2.403-4.201c-1.322-2.311-3.12-6.34-3.995-8.952-1.792-5.348-2.473-5.552-10.931-3.268m-138.088 7.435c-.538.544-.538 17.622 0 18.166.227.229 4.502.273 9.5.096l9.088-.321v-17.716l-9.088-.321c-4.998-.177-9.273-.133-9.5.096m72.915.667c-.227.596-.281 4.838-.12 9.428l.293 8.345 7-.215c6.072-.187 7.298-.549 9.25-2.735 1.834-2.053 2.25-3.696 2.25-8.892v-6.373l-9.13-.321c-5.916-.208-9.275.06-9.543.763M64 128v9h19v-18H64zm116 13c0 3.919.143 4.116 2.75 3.816 2.416-.278 2.75-.741 2.75-3.816s-.334-3.538-2.75-3.816c-2.607-.3-2.75-.103-2.75 3.816m-30.03 9.536c-1.067 1.285-.812 2.019 1.557 4.492 2.668 2.785 2.939 2.86 4.673 1.291 1.778-1.609 1.748-1.764-.866-4.493-3.123-3.259-3.629-3.381-5.364-1.29m60.055 1.021-2.476 2.436 2.021 2.022 2.021 2.021 2.857-2.982c2.391-2.495 2.649-3.232 1.582-4.518-1.73-2.085-3.084-1.855-6.005 1.021M27 164.5v9.5h19v-19H27zm37 0v9.5h19v-19H64zm116-.533c0 9.05-.019 9.119-3.467 12.566-2.95 2.951-4.151 3.467-8.066 3.467-4.417 0-4.587.108-4.283 2.722.3 2.585.554 2.707 5.066 2.424 3.019-.189 4.75.112 4.75.824 0 2.647 4.918 6.03 8.767 6.03 8.477 0 12.474-10.17 6.274-15.962-2.792-2.608-2.976-3.265-3.25-11.651-.29-8.87-.296-8.888-3.041-9.203l-2.75-.317zM137 182.5c0 2.25.4 2.5 4 2.5s4-.25 4-2.5-.4-2.5-4-2.5-4 .25-4 2.5m84 0c0 2.111.467 2.5 3 2.5 1.65 0 3.338.014 3.75.031s.892-1.108 1.066-2.5c.294-2.345.018-2.531-3.75-2.531-3.67 0-4.066.243-4.066 2.5m-69.826 27.814c-2.573 2.74-2.713 3.994-.638 5.716 1.285 1.067 2.019.812 4.492-1.557 2.773-2.656 2.854-2.946 1.309-4.653-2.114-2.336-2.542-2.295-5.163.494m58.134-.436c-.987 1.58-.736 2.296 1.586 4.521 2.664 2.552 2.816 2.579 4.425.801 1.568-1.733 1.502-1.998-1.131-4.52-3.33-3.19-3.383-3.199-4.88-.802M180 225c0 3.919.143 4.116 2.75 3.816 2.416-.278 2.75-.741 2.75-3.816s-.334-3.538-2.75-3.816c-2.607-.3-2.75-.103-2.75 3.816"/><path fill="#1976D2" fill-opacity=".293" fill-rule="evenodd" d="M60.02 1.244c-4.118 2.151-4.989 5.293-5.005 18.051-.014 11.147.118 11.929 2.399 14.21 3.311 3.311 6.733 3.987 10.449 2.066 4.79-2.477 5.331-4.451 4.967-18.129-.288-10.805-.587-12.648-2.333-14.393C67.879.436 63.133-.382 60.02 1.244m46.288-.234c-4.28 1.724-5.235 4.777-5.53 17.686-.264 11.54-.164 12.253 2.067 14.633 2.988 3.188 6.679 4.111 10.356 2.588 4.543-1.882 5.799-5.503 5.799-16.718 0-11.636-1.164-15.715-5.059-17.729-3.196-1.653-4.48-1.73-7.633-.46m43.776 1.74c-2.859 2.666-2.969 3.118-3.619 14.869l-.67 12.12 2.976 3.33c4.972 5.566 12.701 4.029 15.412-3.064.56-1.463.66-7.033.243-13.47-.662-10.211-.905-11.168-3.492-13.755-3.54-3.54-7.078-3.549-10.85-.03M12.49 20.016c-.346.559-1.047.758-1.559.441-.512-.316-.931-.098-.931.484S9.521 22 8.935 22c-1.667 0-6.288 5.99-7.661 9.931C.511 34.121.024 41.006.015 49.75L0 64h18l.022-15.25c.025-17.538 1.072-21.209 7.577-26.571L29.456 19h-8.169c-4.493 0-8.452.457-8.797 1.016m204.287 44.54c-.306.307-1.619.697-2.917.868-2.987.394-5.101 1.183-11.491 4.289-4.805 2.335-6.599 3.764-11.072 8.818-1.54 1.74-5.5 8.955-5.746 10.469-.045.275-.414 1.022-.82 1.66s-.48 1.83-.166 2.649.091 1.786-.497 2.149c-1.39.859-1.39 9.225 0 10.084.588.363.805 1.347.483 2.186s-.073 2.143.554 2.899c.627.755.849 1.373.494 1.373s.092 1.125.993 2.5 1.249 2.507.773 2.515-.409.346.148.75c.558.404 2.788 3.097 4.956 5.985s4.44 5.25 5.048 5.25 2.091.918 3.294 2.039c1.204 1.121 2.189 1.745 2.189 1.385s1.125.083 2.5.984 2.5 1.348 2.5.993.618-.133 1.373.494c.756.627 2.06.876 2.899.554s1.823-.105 2.186.483c.363.587 1.871 1.045 3.351 1.016 2.127-.041 1.584-.478-2.59-2.082-7.116-2.734-16.358-11.407-19.916-18.688-2.435-4.983-2.777-6.842-2.789-15.178-.012-8.374.327-10.239 2.866-15.734 3.543-7.672 10.354-14.279 18.875-18.31 3.435-1.625 5.532-2.955 4.662-2.955-.871-.001-1.834.249-2.14.555M64 91.5v9.5h18V82H64zm37 .039v9.539l8.75-.289 8.75-.289.288-9.25.287-9.25H101zm36.212-.289.288 9.25 8.75.289 8.75.289V82h-18.075zm27.9 20.795c-24.697 6.468-43.952 24.488-51.774 48.455-3.737 11.449-4.377 27.952-1.522 39.243 12.522 49.518 69.007 71.796 111.094 43.817 30.621-20.357 41.437-60.468 25.093-93.06-5.098-10.167-5.07-10.147-10.819-7.675-2.69 1.158-6.686 2.392-8.88 2.742l-3.989.638 4.211 6.279c21.461 32.005 3.982 75.12-34.091 84.093-28.344 6.681-58.222-12.3-65.052-41.327-3.169-13.467-.314-30.2 7.139-41.852 8.788-13.738 24.142-23.453 39.622-25.071 3.259-.34 5.795-.891 5.635-1.223s-1.47-2.854-2.912-5.604-2.937-6.463-3.323-8.25c-.813-3.76-.717-3.749-10.432-1.205M27 128v9h19v-18H27zm37 0v9h18v-18H64zm37 0v9h6.812c6.388 0 6.948-.184 9-2.96 1.683-2.275 2.188-4.354 2.188-9V119h-18zm80 13c0 3.333.333 4 2 4s2-.667 2-4-.333-4-2-4-2 .667-2 4m-30.88 9.635c-1.193 1.348-1.024 1.915 1.243 4.183 2.47 2.469 2.724 2.524 4.324.923s1.561-1.848-.668-4.22c-2.744-2.921-3.048-2.976-4.899-.886m60.542 1.196c-2.465 2.573-2.58 2.992-1.144 4.184 1.363 1.131 1.987.935 4.26-1.339 2.383-2.383 2.504-2.823 1.143-4.183-1.36-1.361-1.808-1.22-4.259 1.338m-183.223 4.468c-.291.758-.396 4.938-.234 9.289l.295 7.912 9.288.288 9.288.288-.288-9.288-.288-9.288-8.766-.289c-6.727-.222-8.89.031-9.295 1.088M64 164.5v9.5h18v-19H64zm117-.5v9l-4 4c-3.333 3.333-4.667 4-8 4s-4 .333-4 2c0 1.691.667 2 4.312 2 3.603 0 4.666.479 6.466 2.913 2.705 3.659 7.077 4.73 11.008 2.698 5.914-3.059 6.487-10.87 1.09-14.861-2.81-2.077-2.876-2.34-2.876-11.438 0-8.645-.143-9.312-2-9.312-1.852 0-2 .667-2 9m-44 19c0 1.667.667 2 4 2s4-.333 4-2-.667-2-4-2-4 .333-4 2m84 0c0 1.667.667 2 4 2s4-.333 4-2-.667-2-4-2-4 .333-4 2m-69.338 27.831c-2.465 2.573-2.58 2.992-1.144 4.184 1.363 1.131 1.987.935 4.26-1.339 2.383-2.383 2.504-2.823 1.143-4.183-1.36-1.361-1.808-1.22-4.259 1.338m58.015-1.026c-1.563 1.726-1.495 1.995 1.133 4.513 2.171 2.08 3.062 2.41 3.992 1.48 1.763-1.763 1.477-3.188-1.133-5.639-2.255-2.119-2.385-2.13-3.992-.354M181 225c0 3.333.333 4 2 4s2-.667 2-4-.333-4-2-4-2 .667-2 4"/><path fill="#1976D2" fill-opacity=".219" fill-rule="evenodd" d="M64 91.5v8.5h18V83H64zm37 0v8.5h18V83h-18zm36 0v8.5h18V83h-18zm27 21.071c-7.889 2.064-20.605 8.599-27 13.875-23.849 19.675-32.725 51.539-22.527 80.865 3.334 9.587 7.9 16.869 15.923 25.398 8.116 8.628 18.177 15.187 28.604 18.649 8.173 2.714 21.863 5.017 26.55 4.467 2.433-.285 1.636-.754-4.55-2.677-26.101-8.114-44.266-27.196-50.984-53.558-8.101-31.785 8.373-67.175 38.031-81.704 4.591-2.249 6.919-3.973 6.932-5.136.026-2.162-3.199-2.215-10.979-.179M28 128v9h17v-18H28zm73 0v9l6.75-.007c6.515-.006 6.828-.122 9-3.312 1.682-2.471 2.25-4.74 2.25-8.993V119h-18zm80 12.5c0 2.833.381 3.5 2 3.5s2-.667 2-3.5-.381-3.5-2-3.5-2 .667-2 3.5m30 11c-2.122 2.259-2.221 2.708-.887 4.041 1.333 1.334 1.765 1.218 3.887-1.041s2.221-2.708.887-4.041c-1.333-1.334-1.765-1.218-3.887 1.041m-60.546-.426c-.365.591.357 2.16 1.604 3.488 1.761 1.875 2.573 2.159 3.638 1.275 1.138-.944.996-1.536-.837-3.487-2.441-2.599-3.413-2.88-4.405-1.276M28 164.5v8.5h17v-17H28zm36 0v8.5h18v-17H64zm117 .5c0 8.333.148 9 2 9s2-.667 2-9-.148-9-2-9-2 .667-2 9m-44 18c0 1.619.667 2 3.5 2s3.5-.381 3.5-2-.667-2-3.5-2-3.5.381-3.5 2m28 0c0 1.704.667 2 4.5 2s4.5-.296 4.5-2-.667-2-4.5-2-4.5.296-4.5 2m56 0c0 1.619.667 2 3.5 2s3.5-.381 3.5-2-.667-2-3.5-2-3.5.381-3.5 2m-69.859 28.35c-1.977 2.104-2.044 2.485-.645 3.647 1.312 1.089 1.957.926 4.021-1.013 1.878-1.765 2.196-2.625 1.348-3.647-1.526-1.838-2.177-1.699-4.724 1.013m58.313-1.276c-.365.591.357 2.16 1.604 3.488 1.761 1.875 2.573 2.159 3.638 1.275 1.138-.944.996-1.536-.837-3.487-2.441-2.599-3.413-2.88-4.405-1.276M181 224.5c0 2.833.381 3.5 2 3.5s2-.667 2-3.5-.381-3.5-2-3.5-2 .667-2 3.5"/></svg>